<?xml version="1.0" encoding="iso-8859-1"?>
<!-- Generator: Adobe Illustrator 19.0.0, SVG Export Plug-In . SVG Version: 6.00 Build 0)  -->
<svg version="1.1" id="Layer_1" xmlns="http://www.w3.org/2000/svg" xmlns:xlink="http://www.w3.org/1999/xlink" x="0px" y="0px"
	 viewBox="0 0 504 504" style="enable-background:new 0 0 504 504;" xml:space="preserve">
<circle style="fill:#84DBFF;" cx="252" cy="252" r="252"/>
<path style="fill:#F1543F;" d="M301.2,210.8c44.8-4.4,77.6,17.6,90.4,45.2c30.4,66.8-27.2,147.6-112.8,149.2l-150,2.8
	c-14,0.4-25.6-11.2-25.6-25.6l2.8-150c2-84.8,82.8-142.4,149.6-112C283.6,133.2,305.6,166,301.2,210.8z"/>
<path style="fill:#2B3B4E;" d="M330.4,94c-37.6,26-38.4,66.4-2.8,90"/>
<path style="fill:#324A5E;" d="M327.6,184c37.2-26,38.4-66.4,2.4-90"/>
<path style="fill:#2B3B4E;" d="M418,181.6c-24-36-64.4-34.8-90,2.4"/>
<path style="fill:#2A4456;" d="M327.6,184c24,36,64.4,34.8,90-2.4"/>
<path style="fill:#2B3B4E;" d="M393.2,118.8c-43.2-7.2-72.4,22-65.6,65.2"/>
<path style="fill:#324A5E;" d="M327.6,184c43.2,7.2,72.4-22.4,65.6-65.6"/>
<g>
	<path style="fill:#E6E9EE;" d="M206,155.6c-3.2-3.2-8-3.2-11.2,0l-8,8c-3.2,3.2-3.2,8,0,11.2s8,3.2,11.2,0l8-8
		C209.2,163.6,209.2,158.4,206,155.6z"/>
	<path style="fill:#E6E9EE;" d="M356.4,306c-3.2-3.2-8-3.2-11.2,0l-8,8c-3.2,3.2-3.2,8,0,11.2s8,3.2,11.2,0l8-8
		C359.6,314,359.6,308.8,356.4,306z"/>
	<path style="fill:#E6E9EE;" d="M243.6,193.2c-3.2-3.2-8-3.2-11.2,0l-8,8c-3.2,3.2-3.2,8,0,11.2s8,3.2,11.2,0l8-8
		C246.8,201.2,246.8,196,243.6,193.2z"/>
	<path style="fill:#E6E9EE;" d="M318.8,268.4c-3.2-3.2-8-3.2-11.2,0l-8,8c-3.2,3.2-3.2,8,0,11.2s8,3.2,11.2,0l8-8
		C322,276.4,322,271.2,318.8,268.4z"/>
	<path style="fill:#E6E9EE;" d="M281.2,230.8c-3.2-3.2-8-3.2-11.2,0l-8,8c-3.2,3.2-3.2,8,0,11.2c3.2,3.2,8,3.2,11.2,0l8-8
		C284.4,238.8,284.4,233.6,281.2,230.8z"/>
	<path style="fill:#E6E9EE;" d="M143.6,218c-3.2-3.2-8-3.2-11.2,0l-8,8c-3.2,3.2-3.2,8,0,11.2s8,3.2,11.2,0l8-8
		C146.4,226,146.4,221.2,143.6,218z"/>
	<path style="fill:#E6E9EE;" d="M294,368.4c-3.2-3.2-8-3.2-11.2,0l-8,8c-3.2,3.2-3.2,8,0,11.2s8,3.2,11.2,0l8-8
		C297.2,376.4,297.2,371.6,294,368.4z"/>
	<path style="fill:#E6E9EE;" d="M181.2,255.6c-3.2-3.2-8-3.2-11.2,0l-8,8c-3.2,3.2-3.2,8,0,11.2s8,3.2,11.2,0l8-8
		C184.4,263.6,184.4,258.8,181.2,255.6z"/>
	<path style="fill:#E6E9EE;" d="M256.4,330.8c-3.2-3.2-8-3.2-11.2,0l-8,8c-3.2,3.2-3.2,8,0,11.2s8,3.2,11.2,0l8-8
		C259.6,338.8,259.6,334,256.4,330.8z"/>
	<path style="fill:#E6E9EE;" d="M218.8,293.2c-3.2-3.2-8-3.2-11.2,0l-8,8c-3.2,3.2-3.2,8,0,11.2s8,3.2,11.2,0l8-8
		C222,301.2,222,296.4,218.8,293.2z"/>
	<path style="fill:#E6E9EE;" d="M150,362c-3.2-3.2-8-3.2-11.2,0l-8,8c-3.2,3.2-3.2,8,0,11.2s8,3.2,11.2,0l8-8
		C152.8,370,152.8,365.2,150,362z"/>
	<path style="fill:#E6E9EE;" d="M159.6,165.6c-3.2-3.2-8-3.2-11.2,0l-8,8c-3.2,3.2-3.2,8,0,11.2s8,3.2,11.2,0l8-8
		C162.4,174,162.4,168.8,159.6,165.6z"/>
	<path style="fill:#E6E9EE;" d="M307.6,314c-3.2-3.2-8-3.2-11.2,0l-8,8c-3.2,3.2-3.2,8,0,11.2s8,3.2,11.2,0l8-8
		C310.8,322,310.8,317.2,307.6,314z"/>
	<path style="fill:#E6E9EE;" d="M344.8,351.2c-3.2-3.2-8-3.2-11.2,0l-8,8c-3.2,3.2-3.2,8,0,11.2s8,3.2,11.2,0l8-8
		C348,359.2,348,354,344.8,351.2z"/>
	<path style="fill:#E6E9EE;" d="M196.4,202.8c-3.2-3.2-8-3.2-11.2,0l-8,8c-3.2,3.2-3.2,8,0,11.2s8,3.2,11.2,0l8-8
		C199.6,210.8,199.6,206,196.4,202.8z"/>
	<path style="fill:#E6E9EE;" d="M270.8,276.8c-3.2-3.2-8-3.2-11.2,0l-8,8c-3.2,3.2-3.2,8,0,11.2c3.2,3.2,8,3.2,11.2,0l8-8
		C273.6,284.8,273.6,280,270.8,276.8z"/>
	<path style="fill:#E6E9EE;" d="M233.6,240c-3.2-3.2-8-3.2-11.2,0l-8,8c-3.2,3.2-3.2,8,0,11.2s8,3.2,11.2,0l8-8
		C236.8,248,236.8,242.8,233.6,240z"/>
	<path style="fill:#E6E9EE;" d="M201.6,345.6c-3.2-3.2-8-3.2-11.2,0l-8,8c-3.2,3.2-3.2,8,0,11.2s8,3.2,11.2,0l8-8
		C204.8,354,204.8,348.8,201.6,345.6z"/>
	<path style="fill:#E6E9EE;" d="M164.8,308.8c-3.2-3.2-8-3.2-11.2,0l-8,8c-3.2,3.2-3.2,8,0,11.2s8,3.2,11.2,0l8-8
		C167.6,316.8,167.6,312,164.8,308.8z"/>
</g>
<g>
</g>
<g>
</g>
<g>
</g>
<g>
</g>
<g>
</g>
<g>
</g>
<g>
</g>
<g>
</g>
<g>
</g>
<g>
</g>
<g>
</g>
<g>
</g>
<g>
</g>
<g>
</g>
<g>
</g>
</svg>
